<svg width="196" height="84" viewBox="0 0 196 84" fill="none" xmlns="http://www.w3.org/2000/svg">
<g clip-path="url(#clip0_8249_71726)">
<g clip-path="url(#clip1_8249_71726)">
<path d="M83.624 23.0875C82.9138 15.8232 76.4397 10.5164 69.1772 11.2457C61.9418 11.9723 56.659 18.4173 57.3665 25.6546C58.0741 32.8919 64.5051 38.1912 71.7444 37.5037C79.0104 36.8125 84.3342 30.3519 83.624 23.0875ZM73.7904 14.2912C73.9515 14.2907 74.0718 14.3235 74.2216 14.3642L74.2541 14.373C74.3126 14.667 74.2539 14.8037 74.1002 15.0539C73.831 15.492 73.5314 15.9114 73.2318 16.3309C72.7029 17.0713 72.174 17.8119 71.8116 18.6555C71.0259 20.4845 71.209 22.6179 71.3941 24.7737C71.556 26.6604 71.7193 28.5642 71.236 30.296C70.6544 32.3794 69.1946 33.7421 67.3667 34.7585C67.2653 34.7755 67.1535 34.7669 67.0461 34.7586C67.0236 34.7568 67.0013 34.7551 66.9793 34.7537C66.9654 34.7527 66.9516 34.7519 66.938 34.7512L66.9204 34.7178C66.8162 34.5197 66.8099 34.5077 66.8853 34.2822C66.9832 33.99 67.1779 33.6907 67.3614 33.4087C67.4315 33.301 67.5 33.1959 67.5608 33.0946C68.1962 32.036 68.8191 30.8923 69.014 29.6568C69.2574 28.114 69.1278 26.5264 68.9982 24.9387C68.8337 22.9243 68.6693 20.909 69.2671 18.986C70.0015 16.6233 71.7208 15.3909 73.7904 14.2912Z" fill="#0B0803"/>
<path d="M114.685 61.4112C113.862 54.3595 107.478 49.3103 100.426 50.1315C93.371 50.9526 88.3181 57.3388 89.142 64.3942C89.966 71.4495 96.3545 76.5 103.409 75.6739C110.461 74.8479 115.509 68.4629 114.685 61.4112ZM100.446 53.0874C102.152 52.9612 103.747 53.3767 105.124 54.4C107.35 56.0557 108.486 58.7923 108.863 61.4713C109.261 64.2986 109.222 68.2252 107.38 70.5929C106.375 71.8834 105.104 72.4079 103.53 72.6003C101.854 72.7621 100.176 72.3123 98.8059 71.3356C96.6398 69.773 95.5281 67.2055 95.1248 64.6332C94.6652 61.7029 94.6822 57.6023 96.5806 55.1304C97.5906 53.8154 98.8525 53.2921 100.446 53.0874Z" fill="#0B0803"/>
<path d="M41.4306 0.642849C43.7185 0.34284 46.3082 0.578146 48.534 1.13956C49.8878 1.48099 51.2386 1.94535 52.6226 2.14008C53.4185 2.25197 54.2532 2.24302 55.0563 2.25712C55.1862 4.48525 55.616 9.82439 55.3586 11.787C54.9487 11.8665 54.6336 11.8442 54.2213 11.7881C53.799 11.2998 53.6003 10.207 53.3467 9.57389C52.4161 7.25213 50.576 5.46813 48.2688 4.52177C45.3774 3.33583 41.9252 3.48828 39.0754 4.71933C36.0824 6.01226 33.6438 8.59997 32.4553 11.6309C30.6143 16.3257 30.6272 22.3477 32.6927 26.9691C34.1237 30.1708 36.6695 32.9873 40.0008 34.2373C43.1809 35.4307 46.6369 35.0779 49.6829 33.682C51.0431 32.9881 52.3008 31.9564 53.1099 30.6485C53.5676 29.9086 53.9042 28.5022 54.6303 28.0245L54.8324 28.1046C55.6127 29.0904 55.9031 32.1731 56.1595 33.4993C53.2236 36.0869 49.6816 37.8026 45.7883 38.3149C40.6932 38.984 35.3756 37.9558 31.2584 34.7787C27.5107 31.8866 25.2342 27.3422 24.6715 22.6855C24.0174 17.2739 25.2123 11.8124 28.6375 7.5052C31.7938 3.53632 36.4362 1.21591 41.4306 0.642849Z" fill="#0B0803"/>
<path d="M137.118 13.496C135.754 13.1564 134.103 12.9731 132.705 13.1465C129.441 13.4671 126.651 14.7254 124.531 17.2844C122.181 20.1512 121.066 23.8328 121.427 27.5214C121.752 30.6658 123.198 33.7922 125.707 35.7812C128.342 37.8721 132.065 38.4615 135.335 38.0743C138.238 37.7311 140.812 36.4774 142.612 34.1336C143.436 33.0626 144.034 31.852 144.506 30.5911C144.448 30.5365 144.39 30.4799 144.332 30.423C144.054 30.1494 143.767 29.8671 143.393 29.7534C143.36 29.7685 143.331 29.7805 143.306 29.7912C143.192 29.8391 143.146 29.8584 143.052 30.0017C141.499 32.2877 139.72 33.8009 136.94 34.3205C134.774 34.7256 132.62 34.3528 130.803 33.0775C129.357 32.0628 128.216 30.5648 127.548 28.9349C130.871 26.9641 134.484 24.9694 138.308 24.1862C139.065 24.0311 139.837 23.9441 140.606 23.8574C141.415 23.7661 142.221 23.6752 143.004 23.5058C143.53 23.3922 143.907 23.2853 144.086 22.7282C144.534 21.3302 143.828 19.0462 143.123 17.8415C141.835 15.637 139.573 14.1068 137.118 13.496ZM133.737 15.7203C134.358 15.7239 135.024 15.7679 135.622 15.9331C136.634 16.2123 137.551 16.8121 138.045 17.7603C138.386 18.4164 138.654 19.4684 138.385 20.1863C138.16 20.7891 137.672 21.2009 137.133 21.5196C136.46 21.9162 135.654 22.1714 134.877 22.4171C134.613 22.5006 134.353 22.5831 134.102 22.6696C132.745 23.1383 131.408 23.6496 130.115 24.2749C129.82 24.4065 129.446 24.6425 129.048 24.894C128.301 25.3661 127.467 25.8925 126.903 25.8833C126.602 25.6311 126.525 25.4217 126.493 25.0426C126.283 22.5286 127.295 19.6688 128.922 17.7681C130.113 16.3769 131.982 15.8625 133.737 15.7203Z" fill="#0B0803"/>
<path d="M161.561 13.2566C160.596 13.1242 159.618 13.0874 158.645 13.1464C155.333 13.4165 152.533 14.6244 150.366 17.2024C147.983 20.0573 146.838 23.7465 147.187 27.4497C147.479 30.5168 148.911 33.6537 151.327 35.6231C153.928 37.7439 157.808 38.4694 161.081 38.0981C163.994 37.7684 166.612 36.3995 168.43 34.0869C169.267 33.0136 169.923 31.8098 170.37 30.5236C170.314 30.4746 170.255 30.4208 170.194 30.365C169.891 30.0886 169.534 29.7636 169.155 29.7334C167.596 32.0812 165.729 33.7332 162.901 34.3035C160.77 34.7335 158.701 34.4198 156.871 33.2054C155.301 32.1631 154.159 30.6452 153.345 28.9634C156.939 26.5188 161.359 24.6463 165.631 23.856C166.161 23.7578 166.699 23.7162 167.238 23.6746C167.683 23.6402 168.128 23.6058 168.569 23.5394C169.143 23.4529 169.725 23.3216 169.853 22.666C170.215 20.8169 169.486 18.5927 168.394 17.106C166.747 14.863 164.28 13.6348 161.561 13.2566ZM158.406 15.8106C159.52 15.7224 160.604 15.6675 161.678 16.0602C162.707 16.4366 163.537 17.1792 163.984 18.1854C164.28 18.8478 164.408 19.5895 164.129 20.2798C163.969 20.6693 163.678 21.0233 163.34 21.2708C162.53 21.8621 160.531 22.5599 158.792 23.1668C157.935 23.4659 157.142 23.743 156.584 23.9745C155.691 24.3729 154.829 24.8563 153.97 25.3386C153.493 25.6063 153.016 25.8737 152.535 26.126C152.132 23.6637 152.385 21.154 153.725 18.9955C154.833 17.2137 156.395 16.2713 158.406 15.8106Z" fill="#0B0803"/>
<path d="M75.8798 42.7981C78.5154 42.7834 85.9197 42.455 87.9169 42.982C88.0843 43.2111 88.0686 43.2148 88.0481 43.5004C87.5863 44.2786 86.6009 44.5911 85.9176 45.1487C85.5231 45.4698 85.167 45.9281 85.0478 46.4306C84.6069 48.291 84.7808 50.4418 84.7793 52.3524L84.727 60.4213C84.7131 62.3466 84.7732 64.3148 84.5476 66.2266C84.2249 68.9644 83.0165 71.5086 80.8044 73.2133C78.0471 75.3396 74.1981 75.8127 70.828 75.3556C67.8765 74.956 64.9968 73.6778 63.1616 71.2549C61.4966 69.0576 61.0749 66.4913 61.4281 63.8049C61.5213 63.3307 61.6402 62.8723 61.8103 62.4189C62.4384 60.7448 63.6671 59.3685 65.3243 58.6577C67.0746 57.9077 69.2816 57.8525 71.0404 58.6099C71.8962 58.9776 72.4354 59.6112 72.75 60.4874C72.9425 61.023 73.0057 61.4813 72.7598 62.0022C72.0506 62.6726 70.4551 61.7742 69.464 62.0524C68.5491 62.3086 67.8497 62.9495 67.4119 63.7804C66.6515 65.2229 66.6335 67.1077 67.177 68.6249C67.6614 69.9779 68.7592 71.0699 70.0524 71.6679C71.5875 72.3775 73.7459 72.5552 75.3497 71.9584C76.5921 71.4964 77.5047 70.5086 78.0057 69.2953C78.4375 68.2499 78.6399 67.0477 78.7415 65.9263C78.9708 63.3993 79.255 48.1365 78.6984 46.4858C78.111 44.7443 76.1088 44.6928 75.65 43.6327C75.6502 43.3766 75.6559 43.1989 75.7794 42.9746C75.8119 42.9146 75.8463 42.857 75.8798 42.7981Z" fill="#0B0803"/>
<path d="M130.334 71.0736C131.458 68.2916 132.428 65.4251 133.464 62.6076C134.271 60.4139 135.269 58.1442 135.764 55.8611C135.869 55.3745 135.916 54.8929 135.78 54.4076C135.365 52.9247 133.452 53.0436 133.019 51.8977C133.079 51.6465 133.043 51.5374 133.284 51.383C133.726 51.0999 141.536 51.0705 142.493 51.1918C142.812 51.2322 143.039 51.3033 143.248 51.5595C143.27 52.1097 143.137 52.361 142.642 52.6416C141.848 53.0901 140.837 53.3193 140.241 54.0571C139.303 55.2189 135.773 65.1604 134.901 67.4203L131.989 74.9744C131.257 76.8715 130.57 78.9341 129.48 80.6597C128.819 81.7038 127.929 82.7149 126.851 83.3362C125.277 84.2407 123.282 84.4073 121.543 83.9183C120.191 83.5372 118.955 82.7002 118.308 81.4268C117.795 80.4195 117.669 79.0787 118.045 78.0052C118.326 77.2049 118.974 76.5419 119.746 76.1975C120.246 75.9757 121.064 75.7821 121.581 76.0627C122.811 76.7318 122.01 78.9415 122.482 80.1204C122.641 80.5163 122.874 80.7957 123.278 80.9587C123.937 81.2234 125.079 80.8606 125.672 80.5726C127.677 79.5947 128.519 76.4426 129.185 74.4965C128.344 74.5124 127.37 74.6153 126.541 74.4707C126.412 74.4487 126.25 74.4144 126.135 74.347C125.861 74.1876 125.684 73.8984 125.542 73.6214C124.888 72.3457 124.444 70.8628 123.933 69.5196L120.75 61.1443C120.124 59.4984 119.555 57.7827 118.787 56.1993C118.213 55.0191 117.449 53.8132 116.27 53.1612C115.685 52.8389 114.915 52.8426 114.52 52.2568C114.451 51.8573 114.522 51.6146 114.646 51.2322C116.756 51.1465 125.24 50.9259 126.801 51.3597C126.886 51.6575 126.901 52.0693 126.783 52.3622C126.597 52.8254 125.701 52.9676 125.29 53.133C124.845 53.312 124.46 53.5816 124.287 54.0485C124.097 54.5645 124.351 55.3941 124.499 55.9174C125.145 58.2055 126.187 60.4703 127.044 62.6971C128.117 65.479 129.084 68.3664 130.334 71.0736Z" fill="#0B0803"/>
<path d="M115.397 2.72033C117.271 2.62266 119.049 2.86201 120.685 3.84268C121.88 4.55838 122.893 5.6355 123.194 7.02893C123.358 7.78532 123.307 8.58633 122.867 9.24334C122.389 9.95672 121.423 10.5127 120.575 10.619C120.065 10.6827 119.467 10.6132 119.059 10.2834C118.112 9.51798 118.553 8.15654 118.373 7.1092C118.275 6.54546 117.982 6.07106 117.494 5.76553C116.756 5.30265 115.603 5.1497 114.766 5.38194C114.034 5.58464 113.507 6.10206 113.17 6.76911C112.098 8.88671 112.691 11.6544 113.354 13.7959C115.602 13.8517 117.859 13.8064 120.108 13.8043C120.114 14.7583 120.097 15.6965 120.025 16.648C117.853 16.6457 115.677 16.6127 113.507 16.6955C113.369 18.927 113.423 21.1942 113.409 23.4308C113.389 26.7781 113.059 30.4734 113.826 33.7306C113.943 34.0324 114.071 34.3166 114.228 34.6004C114.905 35.8314 115.321 35.6997 116.525 36.0963C116.935 36.2311 117.173 36.3978 117.352 36.7801C117.336 37.1037 117.286 37.2262 117.095 37.4873C116.988 37.5547 116.945 37.5939 116.805 37.6196C116.369 37.7029 105.891 37.6576 105.298 37.5596C104.891 37.4909 104.604 37.4015 104.348 37.0559C104.517 36.0669 105.618 36.1367 106.279 35.497C107.038 34.7643 107.419 33.7816 107.63 32.7668C108.088 30.5573 107.912 28.0541 107.903 25.7979L107.86 16.6658L103.575 16.6498C103.488 15.7067 103.481 14.7545 103.457 13.8081L107.724 13.8059C107.515 13.1675 107.306 12.5044 107.214 11.8371C106.942 9.86505 107.401 7.86094 108.613 6.2631C110.224 4.13913 112.816 3.05404 115.397 2.72033Z" fill="#0B0803"/>
<path d="M97.6605 2.72366C99.3872 2.57831 101.045 2.70417 102.594 3.55248C103.832 4.23044 104.89 5.34874 105.27 6.73273C105.505 7.59036 105.531 8.67679 105.045 9.45819C104.702 10.0115 104.129 10.3353 103.499 10.4533C102.925 10.5609 102.167 10.5596 101.688 10.1751C100.781 9.44728 101.387 8.04784 101.185 7.08384C101.064 6.50331 100.596 6.0109 100.087 5.73246C99.2867 5.29359 98.1335 5.24028 97.2679 5.50058C96.5494 5.71664 96.0064 6.18663 95.6768 6.85982C94.7211 8.81098 95.446 11.8004 96.1017 13.7421C98.2536 13.8697 100.453 13.7706 102.613 13.7817C102.667 14.7445 102.618 15.6878 102.56 16.6495C100.369 16.6446 98.1764 16.6524 95.9848 16.6728C95.884 19.4129 95.8436 22.1549 95.8632 24.8969C95.8557 27.7216 95.5743 30.895 96.403 33.6196C97.3132 35.6143 99.2034 35.9506 99.6495 37.0162C99.5808 37.211 99.609 37.2441 99.4166 37.3581C98.7254 37.7711 88.2318 37.6902 87.2937 37.4672C87.2576 37.3397 87.2093 37.1926 87.2048 37.0603C87.1765 36.2282 88.4883 35.8788 88.9924 35.3813C89.6941 34.6888 90.0411 33.4054 90.2039 32.4497C90.5701 30.3021 90.4539 27.935 90.4517 25.7591L90.4332 16.6679L86.1591 16.6497C86.0942 15.701 86.0951 14.7575 86.0993 13.807C87.4625 13.8219 88.8261 13.8203 90.1894 13.8023C89.9783 13.1079 89.7559 12.4107 89.6488 11.6913C89.3573 9.73479 89.7826 7.80188 90.9788 6.21139C92.586 4.07455 95.0875 3.08457 97.6605 2.72366Z" fill="#0B0803"/>
</g>
</g>
<defs>
<clipPath id="clip0_8249_71726">
<rect width="196" height="84" fill="white"/>
</clipPath>
<clipPath id="clip1_8249_71726">
<rect width="145.87" height="83.6758" fill="white" transform="translate(24.5 0.511719)"/>
</clipPath>
</defs>
</svg>
